HIERARCHY
ROOT pelvis
{
  OFFSET 0 100 0
  CHANNELS 6 Xposition Yposition Zposition Zrotation Xrotation Yrotation
  JOINT pelvis_right_femur
  {
    OFFSET -10.78128 -3.44521 -0.5502486
    CHANNELS 3 Zrotation Xrotation Yrotation
    JOINT right_femur_tibia
    {
      OFFSET -0.8047443 -44.0398 -0.1307829
      CHANNELS 3 Zrotation Xrotation Yrotation
      JOINT right_tibia_foot
      {
        OFFSET 3.006224 -47.83518 -5
        CHANNELS 3 Zrotation Xrotation Yrotation
        End Site
        {
          OFFSET 0 -5 15
        }
      }
    }
  }
  JOINT pelvis_left_femur
  {
    OFFSET 10.78128 -3.44521 -0.5502486
    CHANNELS 3 Zrotation Xrotation Yrotation
    JOINT left_femur_tibia
    {
      OFFSET 0.8047443 -44.0398 -0.1307829
      CHANNELS 3 Zrotation Xrotation Yrotation
      JOINT left_tibia_foot
      {
        OFFSET -4.370144 -48.10324 -4.275266
        CHANNELS 3 Zrotation Xrotation Yrotation
        End Site
        {
          OFFSET 0 -5 15
        }
      }
    }
  }
  JOINT pelvis_spine1
  {
    OFFSET 0 6.468898 -3.129235
    CHANNELS 3 Zrotation Xrotation Yrotation
    JOINT spine1
    {
      OFFSET 0 23.15396 4.99043
      CHANNELS 3 Zrotation Xrotation Yrotation
      JOINT spine2
      {
        OFFSET 0 20.79997 -5.064912
        CHANNELS 3 Zrotation Xrotation Yrotation
        JOINT neck
        {
          OFFSET 0 14.38658 9.616178
          CHANNELS 3 Zrotation Xrotation Yrotation
          End Site
          {
            OFFSET 0 20 0
          }
        }
      }
      JOINT right_manubrium
      {
        OFFSET -5.722621 16.35077 3.967754
        CHANNELS 3 Zrotation Xrotation Yrotation
        JOINT right_clavicle
        {
          OFFSET -13.16364 1.694482 -4.693211
          CHANNELS 3 Zrotation Xrotation Yrotation
          JOINT right_humerus
          {
            OFFSET -28.5034 -0.3100689 -2.792744
            CHANNELS 3 Zrotation Xrotation Yrotation
            JOINT right_radius
            {
              OFFSET -25.15693 0.02248979 -1.271978
              CHANNELS 3 Zrotation Xrotation Yrotation
              End Site
              {
                OFFSET -15 0 0
              }
            }
          }
        }
      }
      JOINT left_manubrium
      {
        OFFSET 5.722621 16.35077 3.967754
        CHANNELS 3 Zrotation Xrotation Yrotation
        JOINT left_clavicle
        {
          OFFSET 13.16364 1.694482 -4.693211
          CHANNELS 3 Zrotation Xrotation Yrotation
          JOINT left_humerus
          {
            OFFSET 29.39168 -1.063119 -2.237045
            CHANNELS 3 Zrotation Xrotation Yrotation
            JOINT left_radius
            {
              OFFSET 24.59957 -0.9528479 0.9047498
              CHANNELS 3 Zrotation Xrotation Yrotation
              End Site
              {
                OFFSET 15 -0 -0
              }
            }
          }
        }
      }
    }
  }
}
MOTION
Frames: 23
Frame Time: 0.0416666666667
0 103.5113 0 2.180835 -1.190545 0.2746113 1.243956 -10.10783 8.703777 -0 34.34528 -0 -5.271244 -17.92776 -2.330412 -8.037496 10.10104 -23.49421 -0 5.141409 -0 7.673839 -16.17155 26.56897 -4.341551 -5.04383 4.958124 2.024531 9.211713 -7.744674 0.8325044 22.80641 7.175819 3.252525 -23.11178 8.805584 6.372835 -19.75624 11.57679 86.31825 35.95283 -19.80471 -0 0 16.22849 -7.575012 8.246792 4.615998 5.506197 -19.49666 -1.693562 -94.7528 29.74077 22.88809 0 0 -16.0615 3.523301 17.8998 9.5385
0.3267942 103.4814 1.381453 2.032437 -1.050489 0.4476491 1.50038 -11.12572 8.530952 -0 33.56304 -0 -5.319671 -17.45568 -2.254631 -7.909727 10.24908 -23.34588 -0 5.209921 -0 7.522624 -16.48355 26.37594 -4.287848 -4.837328 4.920762 2.125369 9.173924 -7.760054 0.8482729 22.68999 7.195804 3.280587 -23.26018 8.826049 6.355749 -19.686 11.57931 86.32256 35.94413 -19.8873 -0 0 16.06568 -7.608811 8.287491 4.631022 5.60079 -19.57787 -1.691471 -94.58085 29.68509 22.63176 0 0 -16.50203 3.630109 17.80573 9.457507
0.6567158 103.3776 2.885916 1.848278 -0.8213381 0.5548303 1.801112 -12.53146 8.236956 -0 31.78393 -0 -5.364831 -16.69255 -1.991395 -7.765976 10.4458 -23.09632 -0 5.360757 -0 7.284966 -16.94456 26.06161 -4.236396 -4.559382 4.905359 2.280321 9.112041 -7.757131 0.8754087 22.51796 7.219388 3.326168 -23.46314 8.847101 6.31607 -19.55957 11.58041 86.34283 35.93187 -20.03084 -0 0 15.79488 -7.657066 8.350711 4.645414 5.770041 -19.7113 -1.68439 -94.30287 29.59888 22.18965 0 0 -17.20678 3.795169 17.67222 9.312148
0.9989371 103.1556 4.571211 1.672165 -0.4826075 0.6048315 2.062259 -14.19927 7.800842 -0 28.58453 -0 -5.385119 -15.5928 -1.447741 -7.653864 10.68201 -22.72084 -0 5.651102 -0 6.943326 -17.54413 25.59107 -4.209655 -4.243673 4.938501 2.479088 9.023116 -7.715932 0.9180791 22.30366 7.241661 3.390939 -23.70265 8.865621 6.2358 -19.3588 11.57179 86.39832 35.91654 -20.25132 -0 0 15.39688 -7.719228 8.439501 4.655975 6.027987 -19.90732 -1.668127 -93.90461 29.48181 21.52888 0 0 -18.18787 4.013454 17.50263 9.093825
1.361737 102.7807 6.497979 1.532672 -0.03259502 0.6264776 2.234941 -15.96036 7.225457 -0 23.9695 -0 -5.381511 -14.20205 -0.6273978 -7.596787 10.95386 -22.2063 -0 6.140892 -0 6.472609 -18.23305 24.93326 -4.209854 -3.926467 5.013844 2.698493 8.908672 -7.643565 0.969581 22.07044 7.264227 3.469921 -23.95682 8.879882 6.108008 -19.08534 11.5421 86.50865 35.89836 -20.54695 -0 0 14.87609 -7.795107 8.556398 4.665862 6.356273 -20.16023 -1.646349 -93.39742 29.3347 20.6757 0 0 -19.37473 4.265669 17.29981 8.824604
1.745475 102.252 8.728134 1.444152 0.5137308 0.6688825 2.308363 -17.56476 6.538981 -0 18.37913 -0 -5.369805 -12.6702 0.371859 -7.59368 11.26289 -21.54383 -0 6.921448 -0 5.827875 -18.90639 24.04771 -4.214773 -3.653662 5.08721 2.898665 8.773434 -7.579314 1.009239 21.85525 7.296429 3.550107 -24.19588 8.888007 5.936666 -18.75947 11.4741 86.69981 35.87781 -20.89956 -0 0 14.2578 -7.88535 8.70522 4.685755 6.697282 -20.44587 -1.633897 -92.81821 29.16127 19.72018 0 0 -20.59625 4.514703 17.06565 8.563674
2.143673 101.6052 11.32333 1.396073 1.129708 0.7891077 2.306516 -18.77771 5.788147 -0 12.42336 -0 -5.378307 -11.16152 1.429343 -7.619302 11.59566 -20.73598 -0 8.103981 -0 4.961597 -19.42587 22.907 -4.185752 -3.461038 5.116512 3.050846 8.621993 -7.560117 1.019245 21.68286 7.343336 3.618671 -24.39677 8.88459 5.735556 -18.39817 11.36215 86.98696 35.85517 -21.29128 -0 0 13.56934 -7.992535 8.889058 4.72618 6.983889 -20.72971 -1.647663 -92.21763 28.9647 18.77002 0 0 -21.67641 4.726174 16.80147 8.368158
2.544947 100.9195 14.34635 1.336149 1.769574 1.032952 2.301414 -19.3496 5.056057 -0 6.956404 -0 -5.46592 -9.857219 2.401584 -7.605291 11.90028 -19.79881 -0 9.88993 -0 3.808674 -19.56603 21.49677 -4.051375 -3.373285 5.073479 3.148534 8.45762 -7.610663 0.9891166 21.55434 7.398941 3.663713 -24.54577 8.854609 5.534063 -18.00197 11.22441 87.36949 35.83151 -21.71301 -0 0 12.83216 -8.124626 9.111917 4.797029 7.129868 -20.95566 -1.70793 -91.67423 28.74539 17.96305 0 0 -22.42951 4.869019 16.50546 8.289569
2.936225 100.3094 17.85637 1.20557 2.373665 1.419676 2.375037 -19.0611 4.432559 -0 2.768713 -0 -5.684149 -8.922125 3.165003 -7.483303 12.09127 -18.75684 -0 12.51663 -0 2.331409 -19.07624 19.83556 -3.741886 -3.401898 4.951394 3.194761 8.287778 -7.735989 0.9129593 21.46289 7.452213 3.674623 -24.63082 8.77989 5.362684 -17.56834 11.09036 87.83302 35.80882 -22.1512 -0 0 12.06809 -8.293337 9.377127 4.907817 7.059855 -21.06659 -1.830895 -91.26654 28.50453 17.42859 0 0 -22.70286 4.919367 16.17527 8.36524
3.311311 99.88831 21.87954 0.9881286 2.856455 1.910133 2.55642 -17.81609 3.968642 -0 0.08319687 -0 -6.031822 -8.444693 3.686744 -7.255796 12.00364 -17.6461 -0 16.21716 -0 0.5893511 -17.7556 18.01701 -3.243408 -3.52438 4.800949 3.191633 8.139484 -7.887607 0.7894909 21.41168 7.490617 3.643159 -24.62941 8.645275 5.233944 -17.11296 10.99656 88.33337 35.79165 -22.55604 -0 0 11.31579 -8.516402 9.683674 5.068525 6.766625 -21.03351 -2.010636 -91.03902 28.24284 17.22758 0 0 -22.4727 4.872024 15.81244 8.591947
3.673685 99.74636 26.38204 0.7115504 3.102477 2.382971 2.82219 -15.56803 3.683489 0 -1.264479 0 -6.474901 -8.477034 3.992249 -6.973508 11.37746 -16.50833 -0 21.25479 -0 -1.283139 -15.4398 16.19923 -2.586326 -3.689939 4.720513 3.137875 8.05749 -7.974388 0.6205842 21.41587 7.498678 3.562479 -24.50625 8.435355 5.149538 -16.66886 10.98731 88.79885 35.78905 -22.84136 -0 0 10.63206 -8.820674 10.02817 5.292758 6.289027 -20.84635 -2.223876 -91.01606 27.95741 17.37958 0 0 -21.79984 4.732477 15.42051 8.939311
4.031294 99.93866 31.27828 0.4600009 3.026076 2.697979 3.08657 -12.3325 3.537669 0 -1.677086 0 -6.951472 -9.021255 4.146684 -6.685092 9.966387 -15.36715 -0 27.62436 -0 -3.087579 -12.25227 14.58036 -1.867066 -3.834489 4.804312 3.030296 8.076218 -7.923699 0.4223073 21.49651 7.459711 3.439592 -24.24028 8.143646 5.111964 -16.28044 11.08694 89.15057 35.81078 -22.91849 -0 0 10.07305 -9.23322 10.40324 5.5923 5.687689 -20.53406 -2.441521 -91.174 27.64409 17.84139 0 0 -20.80914 4.519697 15.00653 9.357273
4.39622 100.4577 36.43185 0.3877866 2.552693 2.78417 3.184913 -8.139325 3.438028 0 -1.815371 0 -7.355031 -10.05283 4.26571 -6.439329 7.457544 -14.22811 -0 35.01474 -0 -4.569244 -8.686597 13.38064 -1.280047 -3.868093 5.158603 2.859428 8.224123 -7.673973 0.2318122 21.68849 7.348862 3.298774 -23.81982 7.768494 5.131726 -16.01694 11.30295 89.27853 35.86919 -22.66827 -0 0 9.711172 -9.793885 10.79703 5.983529 5.046227 -20.17293 -2.62724 -91.43568 27.29697 18.50569 0 0 -19.70139 4.267069 14.58219 9.769615
4.77956 101.2434 41.67977 0.6030707 1.67623 2.659915 2.994895 -3.089467 3.324478 0 -2.219837 0 -7.590982 -11.49661 4.446562 -6.246316 3.678043 -13.10332 -0 42.85174 -0 -5.580425 -5.281338 12.7089 -0.9851039 -3.736835 5.830388 2.61814 8.501043 -7.204996 0.08284372 22.01086 7.150525 3.164032 -23.2474 7.317783 5.203381 -15.93972 11.61876 89.09007 35.96831 -21.99669 -0 0 9.612702 -10.53964 11.19437 6.481787 4.444758 -19.83029 -2.751636 -91.7247 26.91337 19.26931 0 0 -18.6506 4.00443 14.1588 10.11565
5.184927 102.2002 46.88121 1.108992 0.5280915 2.406541 2.482765 2.565216 3.192 0 -3.123906 0 -7.596626 -13.16822 4.73138 -6.059844 -1.263393 -12.0242 -0 50.01344 -0 -6.10862 -2.517709 12.56246 -1.037252 -3.472589 6.747907 2.307458 8.849516 -6.571289 -0.005329186 22.44452 6.869444 3.04985 -22.54502 6.816439 5.274539 -16.09928 11.97263 88.51542 36.09367 -20.8453 -0 0 9.849648 -11.51115 11.57322 7.105543 3.967055 -19.53273 -2.791666 -91.98733 26.49595 20.06241 0 0 -17.76185 3.751446 13.74432 10.37124
5.612959 103.1964 51.94674 1.847286 -0.6988906 2.131421 1.671538 8.503339 3.062809 0 -4.569791 0 -7.333996 -14.85308 5.130461 -5.813952 -7.093767 -11.00854 -0 55.19084 -0 -6.198167 -0.7547431 12.90592 -1.418424 -3.152392 7.783389 1.935626 9.18983 -5.860115 -0.02534611 22.94603 6.523694 2.962294 -21.74657 6.297958 5.274738 -16.53177 12.28789 87.50968 36.21421 -19.18401 -0 0 10.48939 -12.7443 11.9078 7.87204 3.686678 -19.28042 -2.732382 -92.18962 26.05148 20.84088 0 0 -17.08798 3.518348 13.34365 10.5362
6.071335 104.0736 56.84683 2.682676 -1.837122 1.913073 0.6877926 14.40419 2.97347 0 -6.385573 0 -6.818927 -16.44584 5.617834 -5.423925 -13.37706 -9.998726 -0 57.53711 -0 -5.958304 0.06296748 13.70002 -2.007986 -2.859607 8.804729 1.521416 9.467411 -5.145141 0.006451526 23.44467 6.150957 2.893816 -20.90303 5.800613 5.160937 -17.21563 12.52138 86.11307 36.28305 -17.06499 -0 0 11.5431 -14.2299 12.17707 8.778226 3.610464 -19.04668 -2.58781 -92.33569 25.59356 21.5984 0 0 -16.58892 3.294796 12.95593 10.64077
6.57842 104.6615 61.61647 3.408185 -2.726816 1.759229 -0.2466531 19.91841 2.933089 0 -8.232094 0 -6.106593 -17.92433 6.135787 -4.768958 -19.51766 -8.858931 -0 56.45534 -0 -5.549709 0.2985859 14.91532 -2.599934 -2.678339 9.666279 1.092964 9.645548 -4.492903 0.05374916 23.84141 5.808845 2.825398 -20.08349 5.371035 4.908334 -18.08557 12.65243 84.43195 36.24436 -14.60595 -0 0 12.98578 -15.92653 12.36331 9.80585 3.694509 -18.78372 -2.395083 -92.45692 25.14172 22.35361 0 0 -16.15084 3.053163 12.57512 10.74057
7.161197 104.8219 66.33135 3.890328 -3.296368 1.632187 -0.9816876 24.82161 2.920506 0 -9.793897 0 -5.255678 -19.28173 6.635753 -3.795838 -25.04968 -7.501479 -0 52.03424 -0 -5.080878 0.2581675 16.44978 -3.052317 -2.642426 10.29083 0.6784341 9.719199 -3.945631 0.0929227 24.07359 5.536568 2.746706 -19.34206 5.039415 4.533005 -19.06748 12.68036 82.59937 36.06133 -11.96008 -0 0 14.73607 -17.76686 12.45847 10.91558 3.870824 -18.46723 -2.19438 -92.57667 24.71283 23.114 0 0 -15.66724 2.773602 12.19672 10.88156
7.849877 104.5222 71.08095 4.085381 -3.568275 1.486439 -1.473077 28.99935 2.926578 0 -10.74009 0 -4.322324 -20.48604 7.079383 -2.602031 -29.60812 -5.981407 -0 45.16841 -0 -4.590288 0.1095943 18.06742 -3.31126 -2.737823 10.68047 0.3091254 9.716536 -3.528237 0.1234219 24.11814 5.350981 2.664146 -18.7224 4.821628 4.107841 -20.07453 12.62391 80.78095 35.72399 -9.335324 -0 0 16.63224 -19.64815 12.4679 12.03756 4.039539 -18.10676 -2.031873 -92.70222 24.32408 23.86359 0 0 -15.03529 2.445325 11.81844 11.10307
8.669378 103.8411 75.95455 4.026179 -3.608316 1.282176 -1.77285 32.4072 2.974136 0 -10.78512 0 -3.35389 -21.44203 7.436182 -1.403997 -32.95902 -4.488961 -0 37.06044 -0 -4.081396 -0.07630016 19.53536 -3.398522 -2.942598 10.88258 0.005251438 9.676581 -3.245207 0.1571977 23.98548 5.252074 2.591985 -18.24803 4.720073 3.71516 -21.02061 12.50583 79.13659 35.2525 -6.940239 -0 0 18.49727 -21.46896 12.41007 13.10119 4.118085 -17.72368 -1.939344 -92.83125 23.98827 24.57784 0 0 -14.19079 2.066104 11.43957 11.42794
9.634976 102.9351 81.04503 3.868685 -3.517984 0.9860658 -2.106797 35.04888 3.17046 0 -9.669266 0 -2.386713 -21.86579 7.675646 -0.5558084 -35.01893 -3.393249 -0 29.24281 -0 -3.528912 -0.3196912 20.70576 -3.452837 -3.256161 10.99335 -0.2388283 9.643948 -3.066879 0.2186542 23.73591 5.219783 2.553614 -17.90682 4.71931 3.426515 -21.80723 12.33979 77.8323 34.70204 -4.992876 -0 0 20.14426 -23.13964 12.32032 14.04552 4.076974 -17.33976 -1.915967 -92.9509 23.71059 25.22509 0 0 -13.14724 1.64391 11.06161 11.85063
10.75411 102.0156 86.44902 3.823035 -3.417288 0.5705976 -2.782592 36.92036 3.676472 0 -7.125757 0 -1.46149 -21.36122 7.746668 -0.452125 -35.77321 -3.115559 -0 23.31565 -0 -2.895684 -0.6834968 21.49216 -3.663185 -3.685946 11.1167 -0.4429174 9.665346 -2.951382 0.3350088 23.45129 5.225846 2.575282 -17.6684 4.794884 3.303622 -22.32901 12.13706 77.02864 34.15081 -3.70685 -0 0 21.38192 -24.57738 12.24468 14.81693 3.919235 -16.97689 -1.946511 -93.03936 23.49262 25.76353 0 0 -11.96836 1.192716 10.68754 12.34802
